<?xml version="1.0" encoding="UTF-8" standalone="no"?>
<svg
   width="1100"
   height="620"
   viewBox="0 0 1100 620"
   version="1.1"
   id="svg44"
   sodipodi:docname="rolling_quantile_target_errors.svg"
   inkscape:version="1.4.4 (dcaf3e7, 2026-05-05)"
   xmlns:inkscape="http://www.inkscape.org/namespaces/inkscape"
   xmlns:sodipodi="http://sodipodi.sourceforge.net/DTD/sodipodi-0.dtd"
   xmlns="http://www.w3.org/2000/svg"
   xmlns:svg="http://www.w3.org/2000/svg">
  <sodipodi:namedview
     id="namedview44"
     pagecolor="#ffffff"
     bordercolor="#000000"
     borderopacity="0.25"
     inkscape:showpageshadow="2"
     inkscape:pageopacity="0.0"
     inkscape:pagecheckerboard="0"
     inkscape:deskcolor="#d1d1d1"
     inkscape:zoom="1.2467742"
     inkscape:cx="550.21992"
     inkscape:cy="310"
     inkscape:window-width="1920"
     inkscape:window-height="991"
     inkscape:window-x="-9"
     inkscape:window-y="-9"
     inkscape:window-maximized="1"
     inkscape:current-layer="svg44" />
  <defs
     id="defs1">
    <style
       id="style1">
      .bg { fill: #ffffff; }
      .title { font-family: Arial, Helvetica, sans-serif; font-size: 28px; font-weight: 800; fill: #102a63; }
      .subtitle { font-family: Arial, Helvetica, sans-serif; font-size: 14px; fill: #52617a; }
      .axis { stroke: #162447; stroke-width: 2; }
      .grid { stroke: #d8e0ef; stroke-width: 1; }
      .tick { font-family: Arial, Helvetica, sans-serif; font-size: 12px; fill: #52617a; }
      .label { font-family: Arial, Helvetica, sans-serif; font-size: 14px; font-weight: 700; fill: #24314f; }
      .ambient { fill: none; stroke: #145dff; stroke-width: 3.2; stroke-linecap: round; stroke-linejoin: round; }
      .power { fill: none; stroke: #e21c2d; stroke-width: 3.2; stroke-linecap: round; stroke-linejoin: round; }
      .note { font-family: Arial, Helvetica, sans-serif; font-size: 13px; fill: #52617a; }
      .legendText { font-family: Arial, Helvetica, sans-serif; font-size: 14px; fill: #24314f; }
      .box { fill: #f7f9fc; stroke: #b8c6df; stroke-width: 1.2; rx: 8; }
      .blueText { fill: #145dff; }
      .redText { fill: #e21c2d; }
    </style>
  </defs>
  <rect
     class="bg"
     width="1100"
     height="620"
     id="rect1" />
  <text
     class="title"
     x="550"
     y="52"
     text-anchor="middle"
     id="text1">Validation Target Mean Errors</text>
  <text
     class="subtitle"
     x="550"
     y="78"
     text-anchor="middle"
     id="text2">Rolling quantile GAT-GRU, 120 epochs</text>
  <!-- Plot area: x 110..970, y 125..500 -->
  <line
     class="grid"
     x1="110"
     y1="125"
     x2="970"
     y2="125"
     id="line2" />
  <line
     class="grid"
     x1="110"
     y1="187.5"
     x2="970"
     y2="187.5"
     id="line3" />
  <line
     class="grid"
     x1="110"
     y1="250"
     x2="970"
     y2="250"
     id="line4" />
  <line
     class="grid"
     x1="110"
     y1="312.5"
     x2="970"
     y2="312.5"
     id="line5" />
  <line
     class="grid"
     x1="110"
     y1="375"
     x2="970"
     y2="375"
     id="line6" />
  <line
     class="grid"
     x1="110"
     y1="437.5"
     x2="970"
     y2="437.5"
     id="line7" />
  <line
     class="grid"
     x1="110"
     y1="500"
     x2="970"
     y2="500"
     id="line8" />
  <line
     class="grid"
     x1="110"
     y1="125"
     x2="110"
     y2="500"
     id="line9" />
  <line
     class="grid"
     x1="253.2"
     y1="125"
     x2="253.2"
     y2="500"
     id="line10" />
  <line
     class="grid"
     x1="396.4"
     y1="125"
     x2="396.4"
     y2="500"
     id="line11" />
  <line
     class="grid"
     x1="539.6"
     y1="125"
     x2="539.6"
     y2="500"
     id="line12" />
  <line
     class="grid"
     x1="682.8"
     y1="125"
     x2="682.8"
     y2="500"
     id="line13" />
  <line
     class="grid"
     x1="826"
     y1="125"
     x2="826"
     y2="500"
     id="line14" />
  <line
     class="grid"
     x1="970"
     y1="125"
     x2="970"
     y2="500"
     id="line15" />
  <line
     class="axis"
     x1="110"
     y1="500"
     x2="970"
     y2="500"
     id="line16" />
  <line
     class="axis"
     x1="110"
     y1="125"
     x2="110"
     y2="500"
     id="line17" />
  <line
     class="axis"
     x1="970"
     y1="125"
     x2="970"
     y2="500"
     id="line18" />
  <!-- Left y-axis for ambient_light: 0.000 to 0.030 -->
  <text
     class="tick blueText"
     x="92"
     y="129"
     text-anchor="end"
     id="text18">0.030</text>
  <text
     class="tick blueText"
     x="92"
     y="192"
     text-anchor="end"
     id="text19">0.025</text>
  <text
     class="tick blueText"
     x="92"
     y="254"
     text-anchor="end"
     id="text20">0.020</text>
  <text
     class="tick blueText"
     x="92"
     y="317"
     text-anchor="end"
     id="text21">0.015</text>
  <text
     class="tick blueText"
     x="92"
     y="379"
     text-anchor="end"
     id="text22">0.010</text>
  <text
     class="tick blueText"
     x="92"
     y="442"
     text-anchor="end"
     id="text23">0.005</text>
  <text
     class="tick blueText"
     x="92"
     y="504"
     text-anchor="end"
     id="text24">0.000</text>
  <!-- Right y-axis for total_power_w: 0.00 to 1.20 -->
  <text
     class="tick redText"
     x="988"
     y="129"
     id="text25">1.20</text>
  <text
     class="tick redText"
     x="988"
     y="192"
     id="text26">1.00</text>
  <text
     class="tick redText"
     x="988"
     y="254"
     id="text27">0.80</text>
  <text
     class="tick redText"
     x="988"
     y="317"
     id="text28">0.60</text>
  <text
     class="tick redText"
     x="988"
     y="379"
     id="text29">0.40</text>
  <text
     class="tick redText"
     x="988"
     y="442"
     id="text30">0.20</text>
  <text
     class="tick redText"
     x="988"
     y="504"
     id="text31">0.00</text>
  <text
     class="tick"
     x="110"
     y="526"
     text-anchor="middle"
     id="text32">1</text>
  <text
     class="tick"
     x="253.2"
     y="526"
     text-anchor="middle"
     id="text33">20</text>
  <text
     class="tick"
     x="396.4"
     y="526"
     text-anchor="middle"
     id="text34">40</text>
  <text
     class="tick"
     x="539.6"
     y="526"
     text-anchor="middle"
     id="text35">60</text>
  <text
     class="tick"
     x="682.8"
     y="526"
     text-anchor="middle"
     id="text36">80</text>
  <text
     class="tick"
     x="826"
     y="526"
     text-anchor="middle"
     id="text37">100</text>
  <text
     class="tick"
     x="970"
     y="526"
     text-anchor="middle"
     id="text38">120</text>
  <text
     class="label"
     x="540"
     y="566"
     text-anchor="middle"
     id="text39">Epoch</text>
  <text
     class="label blueText"
     x="36"
     y="315"
     text-anchor="middle"
     transform="rotate(-90 36 315)"
     id="text40">ambient_light validation mean error</text>
  <text
     class="label redText"
     x="1064"
     y="315"
     text-anchor="middle"
     transform="rotate(90 1064 315)"
     id="text41">total_power_w validation mean error</text>
  <!-- ambient_light validation mean error, left axis scale 0.000..0.030 -->
  <polyline
     class="ambient"
     points="     110,183.4 117.2,395.1 124.5,446.7 131.7,437.6 139.0,466.4     146.2,486.3 153.4,488.8 160.7,489.8 167.9,492.5 175.1,486.4     182.4,491.8 189.6,483.4 196.9,487.9 204.1,483.2 211.3,480.1     218.6,469.6 225.8,479.6 233.1,492.5 240.3,486.9 247.5,481.0     254.8,495.2 262.0,495.0 269.2,485.8 276.5,490.2 283.7,482.4     291.0,488.6 298.2,488.3 305.4,487.7 312.7,473.4 319.9,478.0     327.1,487.9 334.4,481.5 341.6,487.3 348.9,485.1 356.1,489.3     363.3,487.8 370.6,472.2 377.8,487.1 385.0,486.9 392.3,484.5     399.5,487.5 406.8,489.3 414.0,487.4 421.2,484.3 428.5,486.5     435.7,480.5 442.9,488.6 450.2,487.8 457.4,489.1 464.7,487.7     471.9,487.0 479.1,485.1 486.4,488.8 493.6,489.1 500.8,487.2     508.1,488.8 515.3,485.6 522.6,484.8 529.8,487.6 537.0,489.9     544.3,488.2 551.5,488.6 558.7,492.7 566.0,489.5 573.2,491.1     580.5,484.8 587.7,489.3 594.9,486.1 602.2,485.7 609.4,486.1     616.6,488.9 623.9,489.3 631.1,488.5 638.4,487.1 645.6,488.5     652.8,486.2 660.1,478.7 667.3,488.2 674.5,487.2 681.8,491.1     689.0,492.7 696.3,492.8 703.5,491.9 710.7,489.7 718.0,488.9     725.2,489.7 732.4,488.8 739.7,488.9 746.9,486.8 754.2,482.8     761.4,486.8 768.6,490.5 775.9,488.8 783.1,486.2 790.3,487.5     797.6,468.3 804.8,486.6 812.1,483.9 819.3,487.5 826.5,486.2     833.8,484.3 841.0,486.7 848.2,487.5 855.5,486.3 862.7,484.3     870.0,485.0 877.2,486.4 884.4,486.0 891.7,482.4 898.9,486.8     906.1,484.9 913.4,483.4 920.6,482.7 927.9,486.0 935.1,485.9     942.3,480.5 949.6,482.0 956.8,483.9 964.0,487.3 970,470.8"
     id="polyline41" />
  <!-- total_power_w validation mean error, right axis scale 0.00..1.20 -->
  <polyline
     class="power"
     points="     110,128.3 117.2,215.4 124.5,466.3 131.7,473.1 139.0,473.8     146.2,472.6 153.4,473.9 160.7,474.3 167.9,475.0 175.1,475.3     182.4,475.2 189.6,476.0 196.9,476.5 204.1,474.8 211.3,474.9     218.6,476.2 225.8,477.3 233.1,476.5 240.3,475.8 247.5,477.0     254.8,478.2 262.0,475.7 269.2,477.1 276.5,477.1 283.7,476.1     291.0,475.5 298.2,477.0 305.4,475.0 312.7,476.1 319.9,477.0     327.1,476.8 334.4,476.0 341.6,477.4 348.9,475.5 356.1,478.1     363.3,477.3 370.6,475.7 377.8,476.2 385.0,477.0 392.3,476.1     399.5,477.7 406.8,477.1 414.0,476.1 421.2,477.5 428.5,477.3     435.7,475.8 442.9,477.7 450.2,477.5 457.4,477.0 464.7,476.8     471.9,476.8 479.1,478.1 486.4,475.5 493.6,476.6 500.8,476.1     508.1,475.4 515.3,475.0 522.6,475.6 529.8,475.3 537.0,475.3     544.3,478.2 551.5,477.8 558.7,475.4 566.0,476.8 573.2,475.4     580.5,475.3 587.7,475.7 594.9,475.4 602.2,475.8 609.4,475.0     616.6,475.1 623.9,475.7 631.1,475.5 638.4,475.2 645.6,474.5     652.8,474.2 660.1,475.7 667.3,474.2 674.5,474.3 681.8,475.6     689.0,474.2 696.3,474.5 703.5,475.1 710.7,474.5 718.0,474.8     725.2,474.4 732.4,475.9 739.7,475.9 746.9,473.1 754.2,474.6     761.4,475.9 768.6,475.0 775.9,475.1 783.1,475.9 790.3,476.0     797.6,476.6 804.8,476.1 812.1,476.1 819.3,475.9 826.5,475.6     833.8,475.9 841.0,476.1 848.2,475.7 855.5,475.7 862.7,474.6     870.0,476.6 877.2,476.4 884.4,475.6 891.7,476.4 898.9,476.4     906.1,475.6 913.4,475.7 920.6,475.1 927.9,475.7 935.1,475.6     942.3,475.6 949.6,476.5 956.8,476.6 964.0,476.6 970,476.7"
     id="polyline42" />
  <rect
     class="box"
     x="712"
     y="148"
     width="196"
     height="66"
     id="rect42" />
  <line
     class="ambient"
     x1="734"
     y1="172"
     x2="780"
     y2="172"
     id="line42" />
  <text
     class="legendText"
     x="792"
     y="177"
     id="text42">ambient_light</text>
  <line
     class="power"
     x1="734"
     y1="198"
     x2="780"
     y2="198"
     id="line43" />
  <text
     class="legendText"
     x="792"
     y="203"
     id="text43">total_power_w</text>
  <text
     class="note"
     x="550"
     y="596"
     text-anchor="middle"
     id="text44" />
</svg>
