<?xml version="1.0" encoding="UTF-8" standalone="no"?>
<svg
   width="1000"
   height="620"
   viewBox="0 0 1000 620"
   version="1.1"
   id="svg34"
   sodipodi:docname="rolling_quantile_loss_curve.svg"
   inkscape:version="1.4.4 (dcaf3e7, 2026-05-05)"
   xmlns:inkscape="http://www.inkscape.org/namespaces/inkscape"
   xmlns:sodipodi="http://sodipodi.sourceforge.net/DTD/sodipodi-0.dtd"
   xmlns="http://www.w3.org/2000/svg"
   xmlns:svg="http://www.w3.org/2000/svg">
  <sodipodi:namedview
     id="namedview34"
     pagecolor="#ffffff"
     bordercolor="#000000"
     borderopacity="0.25"
     inkscape:showpageshadow="2"
     inkscape:pageopacity="0.0"
     inkscape:pagecheckerboard="0"
     inkscape:deskcolor="#d1d1d1"
     inkscape:zoom="1.2467742"
     inkscape:cx="499.68952"
     inkscape:cy="310"
     inkscape:window-width="1920"
     inkscape:window-height="991"
     inkscape:window-x="-9"
     inkscape:window-y="-9"
     inkscape:window-maximized="1"
     inkscape:current-layer="svg34" />
  <defs
     id="defs1">
    <style
       id="style1">
      .bg { fill: #ffffff; }
      .title { font-family: Arial, Helvetica, sans-serif; font-size: 28px; font-weight: 800; fill: #102a63; }
      .subtitle { font-family: Arial, Helvetica, sans-serif; font-size: 14px; fill: #52617a; }
      .axis { stroke: #162447; stroke-width: 2; }
      .grid { stroke: #d8e0ef; stroke-width: 1; }
      .tick { font-family: Arial, Helvetica, sans-serif; font-size: 13px; fill: #52617a; }
      .label { font-family: Arial, Helvetica, sans-serif; font-size: 15px; font-weight: 700; fill: #24314f; }
      .train { fill: none; stroke: #145dff; stroke-width: 3.2; stroke-linecap: round; stroke-linejoin: round; }
      .val { fill: none; stroke: #e21c2d; stroke-width: 3.2; stroke-linecap: round; stroke-linejoin: round; }
      .marker { fill: #ffffff; stroke: #e21c2d; stroke-width: 2.5; }
      .note { font-family: Arial, Helvetica, sans-serif; font-size: 13px; fill: #e21c2d; font-weight: 700; }
      .legendText { font-family: Arial, Helvetica, sans-serif; font-size: 15px; fill: #24314f; }
      .box { fill: #f7f9fc; stroke: #b8c6df; stroke-width: 1.2; rx: 8; }
    </style>
  </defs>
  <rect
     class="bg"
     x="0"
     y="0"
     width="1000"
     height="620"
     id="rect1" />
  <text
     class="title"
     x="500"
     y="52"
     text-anchor="middle"
     id="text1">Rolling Quantile GAT-GRU Loss Curves</text>
  <text
     class="subtitle"
     x="500"
     y="78"
     text-anchor="middle"
     id="text2">120 training epochs; lower validation loss indicates better interval predictor fit</text>
  <line
     class="grid"
     x1="90"
     y1="145.5"
     x2="910"
     y2="145.5"
     id="line2" />
  <line
     class="grid"
     x1="90"
     y1="216.4"
     x2="910"
     y2="216.4"
     id="line3" />
  <line
     class="grid"
     x1="90"
     y1="287.3"
     x2="910"
     y2="287.3"
     id="line4" />
  <line
     class="grid"
     x1="90"
     y1="358.2"
     x2="910"
     y2="358.2"
     id="line5" />
  <line
     class="grid"
     x1="90"
     y1="429.1"
     x2="910"
     y2="429.1"
     id="line6" />
  <line
     class="grid"
     x1="90"
     y1="500"
     x2="910"
     y2="500"
     id="line7" />
  <line
     class="grid"
     x1="90"
     y1="120"
     x2="90"
     y2="500"
     id="line8" />
  <line
     class="grid"
     x1="220.9"
     y1="120"
     x2="220.9"
     y2="500"
     id="line9" />
  <line
     class="grid"
     x1="358.7"
     y1="120"
     x2="358.7"
     y2="500"
     id="line10" />
  <line
     class="grid"
     x1="496.4"
     y1="120"
     x2="496.4"
     y2="500"
     id="line11" />
  <line
     class="grid"
     x1="634.1"
     y1="120"
     x2="634.1"
     y2="500"
     id="line12" />
  <line
     class="grid"
     x1="771.9"
     y1="120"
     x2="771.9"
     y2="500"
     id="line13" />
  <line
     class="grid"
     x1="910"
     y1="120"
     x2="910"
     y2="500"
     id="line14" />
  <line
     class="axis"
     x1="90"
     y1="500"
     x2="910"
     y2="500"
     id="line15" />
  <line
     class="axis"
     x1="90"
     y1="120"
     x2="90"
     y2="500"
     id="line16" />
  <text
     class="tick"
     x="74"
     y="150"
     text-anchor="end"
     id="text16">0.06</text>
  <text
     class="tick"
     x="74"
     y="221"
     text-anchor="end"
     id="text17">0.05</text>
  <text
     class="tick"
     x="74"
     y="292"
     text-anchor="end"
     id="text18">0.04</text>
  <text
     class="tick"
     x="74"
     y="363"
     text-anchor="end"
     id="text19">0.03</text>
  <text
     class="tick"
     x="74"
     y="434"
     text-anchor="end"
     id="text20">0.02</text>
  <text
     class="tick"
     x="74"
     y="505"
     text-anchor="end"
     id="text21">0.01</text>
  <text
     class="tick"
     x="90"
     y="526"
     text-anchor="middle"
     id="text22">1</text>
  <text
     class="tick"
     x="220.9"
     y="526"
     text-anchor="middle"
     id="text23">20</text>
  <text
     class="tick"
     x="358.7"
     y="526"
     text-anchor="middle"
     id="text24">40</text>
  <text
     class="tick"
     x="496.4"
     y="526"
     text-anchor="middle"
     id="text25">60</text>
  <text
     class="tick"
     x="634.1"
     y="526"
     text-anchor="middle"
     id="text26">80</text>
  <text
     class="tick"
     x="771.9"
     y="526"
     text-anchor="middle"
     id="text27">100</text>
  <text
     class="tick"
     x="910"
     y="526"
     text-anchor="middle"
     id="text28">120</text>
  <text
     class="label"
     x="500"
     y="566"
     text-anchor="middle"
     id="text29">Epoch</text>
  <text
     class="label"
     x="28"
     y="314"
     text-anchor="middle"
     transform="rotate(-90 28 314)"
     id="text30">Loss</text>
  <polyline
     class="train"
     points="     90,130.4 96.9,187.4 103.8,346.9 110.7,380.3 117.6,399.0     124.5,409.2 131.3,422.0 138.2,430.0 152.0,440.7 186.5,452.9     220.9,456.8 255.3,466.9 289.8,472.1 324.2,473.9 358.7,477.7     393.1,477.0 427.5,479.5 462.0,478.7 496.4,479.3 530.8,480.1     565.3,480.3 599.7,483.5 634.1,482.4 668.6,484.2 703.0,483.6     737.4,481.8 771.9,485.8 806.3,484.5 840.8,487.5 875.2,487.0     910.0,487.4"
     id="polyline30" />
  <polyline
     class="val"
     points="     90,163.0 96.9,215.3 103.8,387.7 110.7,403.5 117.6,413.7     124.5,422.9 131.3,436.5 138.2,438.0 152.0,442.5 186.5,444.8     220.9,450.4 255.3,457.9 289.8,461.9 324.2,467.5 358.7,466.4     393.1,466.4 427.5,469.3 462.0,470.7 496.4,468.7 530.8,470.6     565.3,468.9 599.7,471.4 634.1,471.8 668.6,472.1 703.0,469.8     737.4,472.6 771.9,473.0 806.3,472.9 840.8,473.4 875.2,476.0     910.0,474.2"
     id="polyline31" />
  <circle
     class="marker"
     cx="875.2"
     cy="476.0"
     r="5"
     id="circle31" />
  <line
     x1="875.2"
     y1="476.0"
     x2="875.2"
     y2="118"
     stroke="#e21c2d"
     stroke-width="1.5"
     stroke-dasharray="6 6"
     id="line31" />
  <text
     class="note"
     x="748.44763"
     y="112.34412"
     id="text31">best val loss: 0.01338 epoch 115</text>
  <rect
     class="box"
     x="684"
     y="170"
     width="184"
     height="72"
     id="rect31" />
  <line
     class="train"
     x1="706"
     y1="194"
     x2="754"
     y2="194"
     id="line32" />
  <text
     class="legendText"
     x="768"
     y="199"
     id="text32">train_loss</text>
  <line
     class="val"
     x1="706"
     y1="220"
     x2="754"
     y2="220"
     id="line33" />
  <text
     class="legendText"
     x="768"
     y="225"
     id="text33">val_loss</text>
  <text
     class="subtitle"
     x="500"
     y="596"
     text-anchor="middle"
     id="text34">Final: train 0.01177, val 0.01363. Curves plateau after roughly 40 epochs.</text>
</svg>
